<svg width="92" height="46" viewBox="0 0 92 46" fill="none" xmlns="http://www.w3.org/2000/svg">
<g filter="url(#filter0_d_0_1)">
<path d="M29.064 8.2C28.008 9.352 26.728 10.856 25.224 12.712C23.72 14.536 22.168 16.536 20.568 18.712C18.968 20.856 17.384 23.08 15.816 25.384C14.28 27.656 12.92 29.816 11.736 31.864H29.592V37H4.44V33.208C5.08 32.024 5.816 30.744 6.648 29.368C7.512 27.96 8.424 26.52 9.384 25.048C10.344 23.576 11.336 22.088 12.36 20.584C13.416 19.08 14.456 17.64 15.48 16.264C16.504 14.856 17.496 13.528 18.456 12.28C19.448 11 20.376 9.864 21.24 8.872H5.256V3.736H29.064V8.2ZM54.7099 36.232C53.5899 36.52 52.1339 36.808 50.3419 37.096C48.5499 37.416 46.5819 37.576 44.4379 37.576C42.4219 37.576 40.7259 37.288 39.3499 36.712C38.0059 36.136 36.9179 35.336 36.0859 34.312C35.2859 33.288 34.7099 32.072 34.3579 30.664C34.0059 29.224 33.8299 27.656 33.8299 25.96V11.896H39.6379V25.048C39.6379 27.736 40.0219 29.656 40.7899 30.808C41.5899 31.96 42.9659 32.536 44.9179 32.536C45.6219 32.536 46.3579 32.504 47.1259 32.44C47.9259 32.376 48.5179 32.296 48.9019 32.2V11.896H54.7099V36.232ZM76.4063 17.128C75.9263 16.968 75.2543 16.808 74.3903 16.648C73.5583 16.456 72.5823 16.36 71.4623 16.36C70.8223 16.36 70.1343 16.424 69.3983 16.552C68.6943 16.68 68.1983 16.792 67.9103 16.888V37H62.1023V13.096C63.2223 12.68 64.6143 12.296 66.2783 11.944C67.9743 11.56 69.8463 11.368 71.8943 11.368C72.2783 11.368 72.7263 11.4 73.2383 11.464C73.7503 11.496 74.2623 11.56 74.7743 11.656C75.2863 11.72 75.7823 11.816 76.2623 11.944C76.7423 12.04 77.1263 12.136 77.4143 12.232L76.4063 17.128ZM87.3176 37H81.5096V11.896H87.3176V37ZM87.9416 4.552C87.9416 5.64 87.5896 6.504 86.8856 7.144C86.1816 7.784 85.3496 8.104 84.3896 8.104C83.3976 8.104 82.5496 7.784 81.8456 7.144C81.1416 6.504 80.7896 5.64 80.7896 4.552C80.7896 3.432 81.1416 2.552 81.8456 1.912C82.5496 1.272 83.3976 0.951998 84.3896 0.951998C85.3496 0.951998 86.1816 1.272 86.8856 1.912C87.5896 2.552 87.9416 3.432 87.9416 4.552Z" fill="black"/>
<path d="M29.064 8.2L29.8012 8.87572L30.064 8.58898V8.2H29.064ZM25.224 12.712L25.9956 13.3482L26.0009 13.3416L25.224 12.712ZM20.568 18.712L21.3695 19.3101L21.3737 19.3044L20.568 18.712ZM15.816 25.384L14.9893 24.8214L14.9876 24.8239L15.816 25.384ZM11.736 31.864L10.8703 31.3635L10.0028 32.864H11.736V31.864ZM29.592 31.864H30.592V30.864H29.592V31.864ZM29.592 37V38H30.592V37H29.592ZM4.44 37H3.44V38H4.44V37ZM4.44 33.208L3.56029 32.7325L3.44 32.955V33.208H4.44ZM6.648 29.368L5.79566 28.845L5.79227 28.8506L6.648 29.368ZM9.384 25.048L8.54639 24.5017L8.54639 24.5017L9.384 25.048ZM12.36 20.584L11.5416 20.0094L11.5375 20.0153L11.5334 20.0212L12.36 20.584ZM15.48 16.264L16.2823 16.861L16.2887 16.8522L15.48 16.264ZM18.456 12.28L17.6656 11.6674L17.6634 11.6703L18.456 12.28ZM21.24 8.872L21.9941 9.52878L23.4371 7.872H21.24V8.872ZM5.256 8.872H4.256V9.872H5.256V8.872ZM5.256 3.736V2.736H4.256V3.736H5.256ZM29.064 3.736H30.064V2.736H29.064V3.736ZM28.3268 7.52427C27.252 8.69686 25.9579 10.2179 24.4471 12.0824L26.0009 13.3416C27.4981 11.4941 28.764 10.0071 29.8012 8.87572L28.3268 7.52427ZM24.4525 12.0758C22.9352 13.9159 21.3718 15.9307 19.7624 18.1196L21.3737 19.3044C22.9642 17.1412 24.5048 15.1561 25.9955 13.3482L24.4525 12.0758ZM19.7666 18.1139C18.1575 20.27 16.5651 22.5059 14.9893 24.8214L16.6427 25.9466C18.2029 23.6541 19.7785 21.442 21.3694 19.3101L19.7666 18.1139ZM14.9876 24.8239C13.4404 27.1124 12.0677 29.2923 10.8703 31.3635L12.6017 32.3645C13.7723 30.3397 15.1196 28.1996 16.6444 25.9441L14.9876 24.8239ZM11.736 32.864H29.592V30.864H11.736V32.864ZM28.592 31.864V37H30.592V31.864H28.592ZM29.592 36H4.44V38H29.592V36ZM5.44 37V33.208H3.44V37H5.44ZM5.31971 33.6835C5.95076 32.5161 6.67852 31.2502 7.50373 29.8854L5.79227 28.8506C4.95348 30.2378 4.20925 31.5319 3.56029 32.7325L5.31971 33.6835ZM7.50032 29.891C8.35923 28.4913 9.26631 27.0591 10.2216 25.5943L8.54639 24.5017C7.58169 25.9809 6.66477 27.4287 5.79568 28.845L7.50032 29.891ZM10.2216 25.5943C11.1779 24.128 12.1662 22.6455 13.1866 21.1468L11.5334 20.0212C10.5058 21.5305 9.51013 23.024 8.54639 24.5017L10.2216 25.5943ZM13.1784 21.1586C14.2295 19.6616 15.2641 18.2291 16.2822 16.861L14.6778 15.667C13.6479 17.0509 12.6025 18.4984 11.5416 20.0094L13.1784 21.1586ZM16.2887 16.8522C17.308 15.4507 18.2946 14.1299 19.2486 12.8897L17.6634 11.6703C16.6974 12.9261 15.7 14.2613 14.6713 15.6758L16.2887 16.8522ZM19.2464 12.8926C20.2293 11.6244 21.1451 10.5036 21.9941 9.52878L20.4859 8.21522C19.6069 9.22443 18.6667 10.3756 17.6656 11.6674L19.2464 12.8926ZM21.24 7.872H5.256V9.872H21.24V7.872ZM6.256 8.872V3.736H4.256V8.872H6.256ZM5.256 4.736H29.064V2.736H5.256V4.736ZM28.064 3.736V8.2H30.064V3.736H28.064ZM54.7099 36.232L54.9589 37.2005L55.7099 37.0074V36.232H54.7099ZM50.3419 37.096L50.1832 36.1087L50.1746 36.11L50.1661 36.1116L50.3419 37.096ZM39.3499 36.712L38.9559 37.6312L38.9637 37.6344L39.3499 36.712ZM36.0859 34.312L35.2979 34.9276L35.3037 34.9352L35.3098 34.9426L36.0859 34.312ZM34.3579 30.664L33.3865 30.9015L33.3877 30.9065L34.3579 30.664ZM33.8299 11.896V10.896H32.8299V11.896H33.8299ZM39.6379 11.896H40.6379V10.896H39.6379V11.896ZM40.7899 30.808L39.9578 31.3627L39.9631 31.3706L39.9685 31.3784L40.7899 30.808ZM47.1259 32.44L47.0461 31.4432L47.0428 31.4435L47.1259 32.44ZM48.9019 32.2L49.1444 33.1701L49.9019 32.9808V32.2H48.9019ZM48.9019 11.896V10.896H47.9019V11.896H48.9019ZM54.7099 11.896H55.7099V10.896H54.7099V11.896ZM54.4608 35.2635C53.3824 35.5408 51.9598 35.8231 50.1832 36.1087L50.5006 38.0833C52.308 37.7929 53.7973 37.4992 54.9589 37.2005L54.4608 35.2635ZM50.1661 36.1116C48.4412 36.4196 46.533 36.576 44.4379 36.576V38.576C46.6307 38.576 48.6585 38.4124 50.5177 38.0804L50.1661 36.1116ZM44.4379 36.576C42.5106 36.576 40.9549 36.2998 39.736 35.7896L38.9637 37.6344C40.4969 38.2762 42.3332 38.576 44.4379 38.576V36.576ZM39.7438 35.7929C38.5323 35.2736 37.5812 34.5665 36.862 33.6814L35.3098 34.9426C36.2546 36.1055 37.4795 36.9984 38.956 37.6311L39.7438 35.7929ZM36.8739 33.6964C36.1696 32.7949 35.6501 31.7096 35.328 30.4215L33.3877 30.9065C33.7697 32.4344 34.4022 33.7811 35.2979 34.9276L36.8739 33.6964ZM35.3293 30.4265C34.9988 29.0745 34.8299 27.5872 34.8299 25.96H32.8299C32.8299 27.7248 33.013 29.3735 33.3865 30.9015L35.3293 30.4265ZM34.8299 25.96V11.896H32.8299V25.96H34.8299ZM33.8299 12.896H39.6379V10.896H33.8299V12.896ZM38.6379 11.896V25.048H40.6379V11.896H38.6379ZM38.6379 25.048C38.6379 27.7776 39.0177 29.9525 39.9578 31.3627L41.6219 30.2533C41.0261 29.3595 40.6379 27.6944 40.6379 25.048H38.6379ZM39.9685 31.3784C41.0227 32.8964 42.7772 33.536 44.9179 33.536V31.536C43.1546 31.536 42.1571 31.0236 41.6112 30.2376L39.9685 31.3784ZM44.9179 33.536C45.652 33.536 46.4159 33.5026 47.2089 33.4365L47.0428 31.4435C46.2999 31.5054 45.5917 31.536 44.9179 31.536V33.536ZM47.2056 33.4368C48.0167 33.3719 48.6767 33.2871 49.1444 33.1701L48.6593 31.2299C48.359 31.3049 47.835 31.3801 47.0461 31.4432L47.2056 33.4368ZM49.9019 32.2V11.896H47.9019V32.2H49.9019ZM48.9019 12.896H54.7099V10.896H48.9019V12.896ZM53.7099 11.896V36.232H55.7099V11.896H53.7099ZM76.4063 17.128L76.09 18.0767L77.1586 18.4329L77.3857 17.3297L76.4063 17.128ZM74.3903 16.648L74.1654 17.6224L74.1867 17.6273L74.2082 17.6313L74.3903 16.648ZM69.3983 16.552L69.2269 15.5668L69.2194 15.5681L69.3983 16.552ZM67.9103 16.888L67.594 15.9393L66.9103 16.1672V16.888H67.9103ZM67.9103 37V38H68.9103V37H67.9103ZM62.1023 37H61.1023V38H62.1023V37ZM62.1023 13.096L61.7541 12.1586L61.1023 12.4007V13.096H62.1023ZM66.2783 11.944L66.4852 12.9223L66.4922 12.9209L66.4991 12.9193L66.2783 11.944ZM73.2383 11.464L73.1142 12.4563L73.145 12.4601L73.1759 12.4621L73.2383 11.464ZM74.7743 11.656L74.59 12.6389L74.6199 12.6445L74.6502 12.6483L74.7743 11.656ZM76.2623 11.944L76.0046 12.9102L76.0351 12.9184L76.0661 12.9246L76.2623 11.944ZM77.4143 12.232L78.3937 12.4337L78.5727 11.5641L77.7305 11.2833L77.4143 12.232ZM76.7225 16.1793C76.1781 15.9979 75.4539 15.828 74.5723 15.6647L74.2082 17.6313C75.0546 17.788 75.6744 17.9381 76.09 18.0767L76.7225 16.1793ZM74.6151 15.6736C73.6906 15.4603 72.6359 15.36 71.4623 15.36V17.36C72.5286 17.36 73.4259 17.4517 74.1654 17.6224L74.6151 15.6736ZM71.4623 15.36C70.7562 15.36 70.0104 15.4305 69.2269 15.5668L69.5696 17.5372C70.2581 17.4175 70.8883 17.36 71.4623 17.36V15.36ZM69.2194 15.5681C68.5142 15.6963 67.956 15.8187 67.594 15.9393L68.2265 17.8367C68.4405 17.7653 68.8743 17.6637 69.5771 17.5359L69.2194 15.5681ZM66.9103 16.888V37H68.9103V16.888H66.9103ZM67.9103 36H62.1023V38H67.9103V36ZM63.1023 37V13.096H61.1023V37H63.1023ZM62.4504 14.0334C63.5097 13.64 64.8509 13.2681 66.4852 12.9223L66.0713 10.9656C64.3776 11.3239 62.9348 11.72 61.7541 12.1586L62.4504 14.0334ZM66.4991 12.9193C68.1112 12.5543 69.9078 12.368 71.8943 12.368V10.368C69.7847 10.368 67.8373 10.5657 66.0574 10.9687L66.4991 12.9193ZM71.8943 12.368C72.2255 12.368 72.6304 12.3958 73.1142 12.4563L73.3623 10.4717C72.8221 10.4042 72.331 10.368 71.8943 10.368V12.368ZM73.1759 12.4621C73.6463 12.4915 74.1176 12.5503 74.59 12.6389L74.9585 10.6731C74.4069 10.5697 73.8542 10.5005 73.3006 10.4659L73.1759 12.4621ZM74.6502 12.6483C75.1189 12.7069 75.5701 12.7944 76.0046 12.9102L76.5199 10.9778C75.9944 10.8376 75.4536 10.7331 74.8983 10.6637L74.6502 12.6483ZM76.0661 12.9246C76.5268 13.0167 76.8657 13.1032 77.098 13.1807L77.7305 11.2833C77.3868 11.1688 76.9577 11.0633 76.4584 10.9634L76.0661 12.9246ZM76.4348 12.0303L75.4268 16.9263L77.3857 17.3297L78.3937 12.4337L76.4348 12.0303ZM87.3176 37V38H88.3176V37H87.3176ZM81.5096 37H80.5096V38H81.5096V37ZM81.5096 11.896V10.896H80.5096V11.896H81.5096ZM87.3176 11.896H88.3176V10.896H87.3176V11.896ZM81.8456 7.144L81.173 7.88394L81.173 7.88394L81.8456 7.144ZM81.8456 1.912L82.5183 2.65194L82.5183 2.65194L81.8456 1.912ZM86.8856 1.912L86.213 2.65194L86.213 2.65194L86.8856 1.912ZM87.3176 36H81.5096V38H87.3176V36ZM82.5096 37V11.896H80.5096V37H82.5096ZM81.5096 12.896H87.3176V10.896H81.5096V12.896ZM86.3176 11.896V37H88.3176V11.896H86.3176ZM86.9416 4.552C86.9416 5.40287 86.6776 5.98165 86.213 6.40406L87.5583 7.88394C88.5016 7.02635 88.9416 5.87713 88.9416 4.552H86.9416ZM86.213 6.40406C85.6949 6.87506 85.1033 7.104 84.3896 7.104V9.104C85.5959 9.104 86.6684 8.69294 87.5583 7.88394L86.213 6.40406ZM84.3896 7.104C83.6347 7.104 83.0298 6.86904 82.5183 6.40406L81.173 7.88394C82.0695 8.69896 83.1605 9.104 84.3896 9.104V7.104ZM82.5183 6.40406C82.0536 5.98165 81.7896 5.40287 81.7896 4.552H79.7896C79.7896 5.87713 80.2296 7.02635 81.173 7.88394L82.5183 6.40406ZM81.7896 4.552C81.7896 3.65916 82.06 3.06857 82.5183 2.65194L81.173 1.17206C80.2232 2.03543 79.7896 3.20484 79.7896 4.552H81.7896ZM82.5183 2.65194C83.0298 2.18696 83.6347 1.952 84.3896 1.952V-0.0480022C83.1605 -0.0480022 82.0695 0.357041 81.173 1.17206L82.5183 2.65194ZM84.3896 1.952C85.1033 1.952 85.6949 2.18094 86.213 2.65194L87.5583 1.17206C86.6684 0.363057 85.5959 -0.0480022 84.3896 -0.0480022V1.952ZM86.213 2.65194C86.6712 3.06857 86.9416 3.65916 86.9416 4.552H88.9416C88.9416 3.20484 88.508 2.03543 87.5583 1.17206L86.213 2.65194Z" fill="black"/>
</g>
<defs>
<filter id="filter0_d_0_1" x="0.440002" y="0.951996" width="91.5016" height="44.624" filterUnits="userSpaceOnUse" color-interpolation-filters="sRGB">
<feFlood flood-opacity="0" result="BackgroundImageFix"/>
<feColorMatrix in="SourceAlpha" type="matrix" values="0 0 0 0 0 0 0 0 0 0 0 0 0 0 0 0 0 0 127 0" result="hardAlpha"/>
<feOffset dy="4"/>
<feGaussianBlur stdDeviation="2"/>
<feComposite in2="hardAlpha" operator="out"/>
<feColorMatrix type="matrix" values="0 0 0 0 0 0 0 0 0 0 0 0 0 0 0 0 0 0 0.25 0"/>
<feBlend mode="normal" in2="BackgroundImageFix" result="effect1_dropShadow_0_1"/>
<feBlend mode="normal" in="SourceGraphic" in2="effect1_dropShadow_0_1" result="shape"/>
</filter>
</defs>
</svg>
